# File created by Blade
# Date/Time:  Tue Jan 27 20:02:37 2015
# Frame Rate: 120.000 fps
#------------------------------------------------------
:FULLY-SPECIFIED
:DEGREES
2771
root 7.380456 33.243340 4.393616 15.875504 -34.027871 -25.136555
Spine 6.352320 24.871285 6.253898
Head 2.694793 1.315218 7.610825
LeftShoulder -15.254116 2.158398 30.169948
LeftArm -7.108913 -13.320644 -81.107665
LeftForeArm -35.403334 -0.000000 126.944149
LeftHand 8.254445 -0.000000 -37.761550
LeftHandThumb1 -26.253704 0.000000 33.147579
RightShoulder -12.789560 -5.772969 -20.748504
RightArm 24.082424 -44.332449 86.314180
RightForeArm -14.521476 -0.000000 25.271758
RightHand 16.782471 -0.000000 7.727788
RightHandThumb1 -24.326973 -0.000000 -32.862282
LeftUpLeg 6.254568 22.388870 9.139489
LeftLeg -6.246233 -0.000000 0.000000
LeftFoot -21.945706 31.308231 -16.267622
LeftToeBase 16.805544 -0.000000 -0.000000
RightUpLeg -14.553856 -63.600301 -31.025927
RightLeg 93.248743 -0.000000 -0.000000
RightFoot 27.803005 -25.797807 20.443872
RightToeBase 16.569269 -0.000000 -0.000000
2772
root 7.383717 33.244115 4.392704 15.887830 -33.913834 -25.096975
Spine 6.329627 24.782365 6.255283
Head 2.677531 1.320438 7.597399
LeftShoulder -15.284858 2.169151 30.153800
LeftArm -7.072225 -13.278992 -81.170874
LeftForeArm -35.390561 -0.000000 126.948688
LeftHand 8.227848 -0.000000 -37.828225
LeftHandThumb1 -26.253704 0.000000 33.147579
RightShoulder -12.739852 -5.781711 -20.740110
RightArm 24.237250 -44.730065 86.203414
RightForeArm -14.579977 -0.000000 25.450209
RightHand 16.867820 -0.000000 7.824626
RightHandThumb1 -24.326973 -0.000000 -32.862282
LeftUpLeg 6.169810 22.357398 9.110843
LeftLeg -6.238337 -0.000000 0.000000
LeftFoot -21.898779 31.245730 -16.213199
LeftToeBase 16.870495 -0.000000 -0.000000
RightUpLeg -14.581384 -63.463088 -30.939479
RightLeg 93.177081 -0.000000 -0.000000
RightFoot 27.803111 -25.791712 20.484177
RightToeBase 16.376671 -0.000000 -0.000000
2773
root 7.387669 33.242756 4.392045 15.862419 -33.801428 -25.018555
Spine 6.326554 24.738651 6.226365
Head 2.652113 1.286504 7.601084
LeftShoulder -15.276903 2.141481 30.154922
LeftArm -7.052869 -13.248140 -81.231913
LeftForeArm -35.360594 -0.000000 126.967483
LeftHand 8.225897 -0.000000 -37.860815
LeftHandThumb1 -26.253704 0.000000 33.147579
RightShoulder -12.707757 -5.749163 -20.738058
RightArm 24.282773 -45.071485 86.181406
RightForeArm -14.684681 -0.000000 25.652411
RightHand 16.821504 -0.000000 7.887569
RightHandThumb1 -24.326973 -0.000000 -32.862282
LeftUpLeg 6.093731 22.290617 9.047034
LeftLeg -6.214977 -0.000000 0.000000
LeftFoot -21.875111 31.226795 -16.172254
LeftToeBase 16.918739 -0.000000 -0.000000
RightUpLeg -14.605227 -63.322493 -30.919597
RightLeg 93.139112 -0.000000 -0.000000
RightFoot 27.816715 -25.817340 20.434754
RightToeBase 16.500300 -0.000000 -0.000000
2774
root 7.390525 33.241597 4.390586 15.833054 -33.688780 -24.956753
Spine 6.337885 24.783726 6.215348
Head 2.628952 1.187669 7.642135
LeftShoulder -15.189518 2.096276 30.182001
LeftArm -7.021302 -13.233511 -81.324550
LeftForeArm -35.285346 -0.000000 126.993491
LeftHand 8.224870 -0.000000 -37.920605
LeftHandThumb1 -26.253704 0.000000 33.147579
RightShoulder -12.763051 -5.749014 -20.714329
RightArm 24.340249 -45.362476 86.131856
RightForeArm -14.652379 -0.000000 25.880542
RightHand 16.781009 -0.000000 8.259771
RightHandThumb1 -24.326973 -0.000000 -32.862282
LeftUpLeg 6.033867 22.240602 9.012950
LeftLeg -6.202255 -0.000000 0.000000
LeftFoot -21.837965 31.153329 -16.155949
LeftToeBase 16.803662 -0.000000 -0.000000
RightUpLeg -14.585654 -63.172954 -30.909244
RightLeg 93.091884 -0.000000 -0.000000
RightFoot 27.765742 -25.881675 20.487978
RightToeBase 16.543430 -0.000000 -0.000000
2775
root 7.395760 33.239957 4.389936 15.812615 -33.587206 -24.887934
Spine 6.340708 24.768146 6.200570
Head 2.596589 1.144149 7.639756
LeftShoulder -15.179906 2.070844 30.171472
LeftArm -7.015350 -13.218426 -81.371682
LeftForeArm -35.236489 0.000000 127.031376
LeftHand 8.232211 -0.000000 -37.898224
LeftHandThumb1 -26.253704 0.000000 33.147579
RightShoulder -12.773716 -5.750967 -20.714898
RightArm 24.487841 -45.724091 86.029602
RightForeArm -14.642315 -0.000000 26.063461
RightHand 16.707041 0.000000 8.468379
RightHandThumb1 -24.326973 -0.000000 -32.862282
LeftUpLeg 5.960101 22.179475 8.949361
LeftLeg -6.179663 -0.000000 0.000000
LeftFoot -21.812638 31.154927 -16.083107
LeftToeBase 16.916472 -0.000000 -0.000000
RightUpLeg -14.615271 -63.025253 -30.867375
RightLeg 93.041063 -0.000000 -0.000000
RightFoot 27.765220 -25.942420 20.508204
RightToeBase 16.833152 -0.000000 -0.000000
2776
root 7.400096 33.239104 4.386859 15.814741 -33.485906 -24.831591
Spine 6.327703 24.744050 6.189951
Head 2.569982 1.140156 7.618082
LeftShoulder -15.178335 2.033472 30.154739
LeftArm -7.041993 -13.206371 -81.381258
LeftForeArm -35.255933 0.000000 127.069629
LeftHand 8.247989 -0.000000 -37.907905
LeftHandThumb1 -26.253704 0.000000 33.147579
RightShoulder -12.773581 -5.755555 -20.720048
RightArm 24.667359 -46.125119 85.912405
RightForeArm -14.656981 -0.000000 26.173741
RightHand 16.781972 0.000000 8.420706
RightHandThumb1 -24.326973 -0.000000 -32.862282
LeftUpLeg 5.862436 22.104237 8.895574
LeftLeg -6.152967 -0.000000 0.000000
LeftFoot -21.791460 31.153605 -16.049437
LeftToeBase 16.896508 -0.000000 -0.000000
RightUpLeg -14.687724 -62.883312 -30.768288
RightLeg 92.993101 -0.000000 -0.000000
RightFoot 27.708739 -25.978022 20.473783
RightToeBase 17.154286 -0.000000 -0.000000
2777
root 7.404504 33.238211 4.386231 15.808758 -33.382533 -24.783413
Spine 6.323640 24.684593 6.197288
Head 2.559569 1.167167 7.579218
LeftShoulder -15.217828 2.029312 30.126990
LeftArm -7.042603 -13.188215 -81.397839
LeftForeArm -35.295680 0.000000 127.095227
LeftHand 8.287510 -0.000000 -37.993107
LeftHandThumb1 -26.253704 0.000000 33.147579
RightShoulder -12.743060 -5.716554 -20.726519
RightArm 24.821424 -46.527531 85.792035
RightForeArm -14.591852 -0.000000 26.300334
RightHand 16.792550 -0.000000 8.305682
RightHandThumb1 -24.326973 -0.000000 -32.862282
LeftUpLeg 5.787618 22.070655 8.855332
LeftLeg -6.136650 -0.000000 0.000000
LeftFoot -21.773788 31.117752 -16.014412
LeftToeBase 16.873563 -0.000000 -0.000000
RightUpLeg -14.698917 -62.767928 -30.717472
RightLeg 92.934544 -0.000000 -0.000000
RightFoot 27.704329 -25.998005 20.399128
RightToeBase 17.101798 -0.000000 -0.000000
2778
root 7.407904 33.237607 4.383147 15.804038 -33.277241 -24.733991
Spine 6.321411 24.636184 6.193784
Head 2.532301 1.181370 7.560596
LeftShoulder -15.252407 2.039694 30.109696
LeftArm -7.021825 -13.158607 -81.412021
LeftForeArm -35.285260 -0.000000 127.129171
LeftHand 8.295480 -0.000000 -37.992471
LeftHandThumb1 -26.253704 0.000000 33.147579
RightShoulder -12.717359 -5.690752 -20.727431
RightArm 24.967179 -46.876614 85.695395
RightForeArm -14.549934 0.000000 26.425335
RightHand 16.775514 -0.000000 8.236804
RightHandThumb1 -24.326973 -0.000000 -32.862282
LeftUpLeg 5.701886 22.013336 8.815476
LeftLeg -6.107914 -0.000000 0.000000
LeftFoot -21.752471 31.088614 -15.974111
LeftToeBase 16.913168 -0.000000 -0.000000
RightUpLeg -14.746447 -62.639020 -30.623557
RightLeg 92.882181 -0.000000 -0.000000
RightFoot 27.664313 -26.062722 20.426428
RightToeBase 16.880880 -0.000000 -0.000000
2779
root 7.409997 33.237723 4.382175 15.792940 -33.176788 -24.702750
Spine 6.332633 24.650579 6.217543
Head 2.513957 1.139013 7.547540
LeftShoulder -15.236941 2.028907 30.101907
LeftArm -7.009706 -13.132457 -81.419167
LeftForeArm -35.298593 -0.000000 127.152063
LeftHand 8.286939 -0.000000 -38.041783
LeftHandThumb1 -26.253704 0.000000 33.147579
RightShoulder -12.726691 -5.703579 -20.719457
RightArm 25.145687 -47.260976 85.554668
RightForeArm -14.726991 0.000000 26.554300
RightHand 16.826165 -0.000000 8.722325
RightHandThumb1 -24.326973 -0.000000 -32.862282
LeftUpLeg 5.650092 21.988873 8.805480
LeftLeg -6.096934 -0.000000 0.000000
LeftFoot -21.719139 31.017903 -15.924721
LeftToeBase 16.902173 -0.000000 -0.000000
RightUpLeg -14.739631 -62.533824 -30.569887
RightLeg 92.820235 -0.000000 -0.000000
RightFoot 27.704214 -26.095384 20.265261
RightToeBase 16.786499 -0.000000 -0.000000
